HIERARCHY
ROOT Hips
{
	OFFSET 0.000000 0.000000 0.000000
	CHANNELS 6 Xposition Yposition Zposition Zrotation Yrotation Xrotation 
	JOINT LHipJoint
	{
		OFFSET 0.000000 0.000000 0.000000
		CHANNELS 3 Zrotation Yrotation Xrotation
		JOINT LeftUpLeg
		{
			OFFSET 1.363060 -1.794630 0.839290
			CHANNELS 3 Zrotation Yrotation Xrotation
			JOINT LeftLeg
			{
				OFFSET 2.448110 -6.726130 0.000000
				CHANNELS 3 Zrotation Yrotation Xrotation
				JOINT LeftFoot
				{
					OFFSET 2.562200 -7.039590 0.000000
					CHANNELS 3 Zrotation Yrotation Xrotation
					JOINT LeftToeBase
					{
						OFFSET 0.157640 -0.433110 2.322550
						CHANNELS 3 Zrotation Yrotation Xrotation
						End Site
						{
							OFFSET 0.000000 0.000000 0.000000
						}
					}
				}
			}
		}
	}
	JOINT RHipJoint
	{
		OFFSET 0.000000 0.000000 0.000000
		CHANNELS 3 Zrotation Yrotation Xrotation
		JOINT RightUpLeg
		{
			OFFSET -1.305520 -1.794630 0.839290
			CHANNELS 3 Zrotation Yrotation Xrotation
			JOINT RightLeg
			{
				OFFSET -2.542530 -6.985550 0.000000
				CHANNELS 3 Zrotation Yrotation Xrotation
				JOINT RightFoot
				{
					OFFSET -2.568260 -7.056230 0.000000
					CHANNELS 3 Zrotation Yrotation Xrotation
					JOINT RightToeBase
					{
						OFFSET -0.164730 -0.452590 2.363150
						CHANNELS 3 Zrotation Yrotation Xrotation
						End Site
						{
							OFFSET 0.000000 0.000000 0.000000
						}
					}
				}
			}
		}
	}
	JOINT LowerBack
	{
		OFFSET 0.000000 0.000000 0.000000
		CHANNELS 3 Zrotation Yrotation Xrotation
		JOINT Spine
		{
			OFFSET 0.028270 2.035590 -0.193380
			CHANNELS 3 Zrotation Yrotation Xrotation
			JOINT Spine1
			{
				OFFSET 0.056720 2.048850 -0.042750
				CHANNELS 3 Zrotation Yrotation Xrotation
				JOINT Neck
				{
					OFFSET 0.000000 0.000000 0.000000
					CHANNELS 3 Zrotation Yrotation Xrotation
					JOINT Neck1
					{
						OFFSET -0.054170 1.746240 0.172020
						CHANNELS 3 Zrotation Yrotation Xrotation
						JOINT Head
						{
							OFFSET 0.104070 1.761360 -0.123970
							CHANNELS 3 Zrotation Yrotation Xrotation
							End Site
							{
								OFFSET 0.000000 0.000000 0.000000
							}
						}
					}
				}
				JOINT LeftShoulder
				{
					OFFSET 0.000000 0.000000 0.000000
					CHANNELS 3 Zrotation Yrotation Xrotation
					JOINT LeftArm
					{
						OFFSET 3.362410 1.200890 -0.311210
						CHANNELS 3 Zrotation Yrotation Xrotation
						JOINT LeftForeArm
						{
							OFFSET 4.983000 -0.000000 -0.000000
							CHANNELS 3 Zrotation Yrotation Xrotation
							JOINT LeftHand
							{
								OFFSET 3.483560 -0.000000 -0.000000
								CHANNELS 3 Zrotation Yrotation Xrotation
								JOINT LeftFingerBase
								{
									OFFSET 0.000000 0.000000 0.000000
									CHANNELS 3 Zrotation Yrotation Xrotation
									JOINT LeftHandIndex1
									{
										OFFSET 0.715260 -0.000000 -0.000000
										CHANNELS 3 Zrotation Yrotation Xrotation
										End Site
										{
											OFFSET 0.000000 0.000000 0.000000
										}
									}
								}
								JOINT LThumb
								{
									OFFSET 0.000000 0.000000 0.000000
									CHANNELS 3 Zrotation Yrotation Xrotation
									End Site
									{
										OFFSET 0.000000 0.000000 0.000000
									}
								}
							}
						}
					}
				}
				JOINT RightShoulder
				{
					OFFSET 0.000000 0.000000 0.000000
					CHANNELS 3 Zrotation Yrotation Xrotation
					JOINT RightArm
					{
						OFFSET -3.136600 1.374050 -0.404650
						CHANNELS 3 Zrotation Yrotation Xrotation
						JOINT RightForeArm
						{
							OFFSET -5.241900 -0.000000 -0.000000
							CHANNELS 3 Zrotation Yrotation Xrotation
							JOINT RightHand
							{
								OFFSET -3.444170 -0.000000 -0.000000
								CHANNELS 3 Zrotation Yrotation Xrotation
								JOINT RightFingerBase
								{
									OFFSET 0.000000 0.000000 0.000000
									CHANNELS 3 Zrotation Yrotation Xrotation
									JOINT RightHandIndex1
									{
										OFFSET -0.622530 -0.000000 -0.000000
										CHANNELS 3 Zrotation Yrotation Xrotation
										End Site
										{
											OFFSET 0.000000 0.000000 0.000000
										}
									}
								}
								JOINT RThumb
								{
									OFFSET 0.000000 0.000000 0.000000
									CHANNELS 3 Zrotation Yrotation Xrotation
									End Site
									{
										OFFSET 0.000000 0.000000 0.000000
									}
								}
							}
						}
					}
				}
			}
		}
	}
}
MOTION
Frames: 10
Frame Time: 0.008333
-0.854317 14.002968 17.647217 83.643975 34.073439 80.970517 5.573193 3.320944 -2.222353 -27.620475 13.379456 -15.061596 22.339188 19.141274 96.630414 0.271991 2.489221 13.133334 0.047300 -1.403000 -3.858500 -7.099492 -2.623887 -0.517386 36.999287 17.610837 -29.536653 -4.912256 -14.110051 43.891230 -3.340414 14.006774 26.867339 -1.375700 7.422500 -20.973200 2.613168 -0.625619 -13.090621 -8.651971 -3.463468 -26.071634 -1.117210 -0.584997 0.802579 -1.714311 -8.993743 -3.938672 -14.480882 -8.387396 35.388174 -6.177000 -4.585400 13.031600 1.527109 -10.639563 5.055550 -0.066930 -0.299462 -16.309557 15.148642 -19.781256 -2.791519 1.019833 1.106467 -39.956316 35.908698 -8.404456 -5.996400 -7.125000 0.000000 0.000000 5.343800 19.354100 -3.285100 1.122932 10.564000 4.270626 -4.452245 -47.783730 -27.057865 -27.212165 36.649051 -7.751505 0.130340 -3.007159 -5.199701 -19.359316 -41.565015 12.262600 7.125000 0.000000 0.000000 -8.402600 20.664800 -175.050600 
-0.852380 14.026919 17.555792 83.273269 37.096857 80.662489 5.609314 3.318614 -2.261516 -23.670622 13.557366 -14.787394 22.447016 19.181519 96.957210 0.412480 1.455967 13.084489 0.036000 -1.224200 -3.365900 -7.013409 -2.642006 -0.493042 40.315907 17.229574 -28.712022 -4.802420 -13.915688 43.443752 -3.304475 13.992606 26.645691 -1.346500 7.346400 -20.745700 5.490371 -0.320378 -12.879032 -7.202146 -3.252178 -26.138796 -2.423637 -0.674406 0.804645 -1.937188 -9.111646 -3.872355 -14.292578 -8.568067 35.501727 -6.073600 -4.655300 13.051200 1.377438 -10.571168 5.038865 -0.143737 -0.424581 -16.677876 15.158277 -19.813006 -2.787384 0.981990 1.105022 -39.585171 35.810300 -7.550353 -5.423000 -7.125000 0.000000 0.000000 5.390300 20.358700 -3.192300 1.085515 10.656406 4.352427 -4.691391 -47.635781 -27.646815 -26.875525 36.435503 -7.665708 0.090689 -3.126893 -4.896378 -20.196754 -44.014756 13.425300 7.125000 0.000000 0.000000 -8.206300 18.196000 -174.712000 
-0.849323 14.016116 17.470788 83.764904 36.826020 81.561521 5.621582 3.304512 -2.232295 -24.344843 12.879562 -15.198749 22.467062 19.209057 96.982955 0.340574 1.959962 13.026856 0.006000 -0.500200 -1.374500 -7.018489 -2.613396 -0.512641 39.840751 17.527032 -29.097329 -4.704300 -13.843918 43.090997 -3.287315 14.394873 26.165497 -1.255000 7.102200 -20.018400 4.941869 -0.471997 -13.607841 -7.154207 -3.357754 -26.248674 -2.154858 -0.712645 1.147440 -1.735538 -9.208413 -3.802094 -14.414863 -8.720375 35.516502 -6.152700 -4.700900 13.029800 1.376705 -10.594422 5.048868 -0.201042 -0.427601 -16.571273 15.242565 -19.916406 -2.810101 0.932848 1.143128 -39.894462 36.115872 -6.324835 -4.684200 -7.125000 0.000000 0.000000 5.747000 21.741800 -3.225300 1.074063 10.673524 4.366971 -4.729952 -47.738226 -27.650398 -26.923127 36.404593 -7.588263 0.172420 -3.005411 -4.941884 -18.300491 -40.869214 11.423400 7.125000 0.000000 0.000000 -8.915000 21.594100 -174.931300 
-0.855336 14.029060 17.390371 84.071248 38.868397 81.887042 5.626008 3.301231 -2.233744 -21.548497 12.819621 -15.312670 22.591642 19.262568 97.347454 0.451344 1.209365 13.152175 0.001700 -0.269100 -0.739500 -6.948204 -2.611933 -0.521700 41.920113 17.234746 -28.529109 -4.448838 -13.518178 42.097021 -3.261969 15.225564 25.670336 -1.153600 6.819400 -19.181500 6.632090 -0.420230 -13.643725 -6.218321 -3.379004 -26.349135 -2.986058 -0.851960 1.071329 -2.021930 -9.389618 -3.521068 -13.998293 -9.030995 35.637821 -5.950800 -4.799100 13.063700 1.276229 -10.550505 5.036002 -0.155359 -0.450503 -16.274351 15.246789 -19.965396 -2.815244 0.900327 1.143687 -40.166434 36.209458 -5.827767 -4.368900 -7.125000 0.000000 0.000000 5.884100 22.320100 -3.225200 1.040278 10.746388 4.349278 -4.707837 -48.139925 -27.155276 -27.201238 36.679675 -7.696769 0.192932 -2.973126 -5.519596 -18.313524 -40.224429 11.272000 7.125000 0.000000 0.000000 -8.863300 22.189500 -175.082900 
-0.862674 14.040985 17.295481 84.205240 36.956520 81.550936 5.586300 3.310736 -2.251956 -23.915995 13.369968 -14.426173 22.401184 19.166021 96.806913 0.354566 1.821666 12.938511 0.006600 -0.523600 -1.438700 -6.999501 -2.623252 -0.527274 39.992138 17.508086 -28.134466 -4.548153 -13.611755 42.439270 -3.246779 15.423768 25.334745 -1.025400 6.441700 -18.071400 5.299162 -0.453516 -12.895029 -7.171801 -3.365326 -26.273715 -2.351659 -0.729380 0.721786 -2.339102 -9.044978 -3.501643 -14.438195 -8.372967 35.361598 -6.033400 -4.623100 12.956600 1.372807 -10.590334 5.056811 -0.368880 -0.646704 -16.731948 15.224523 -19.858076 -2.792887 0.909126 1.138830 -39.515320 35.872293 -5.816333 -4.310200 -7.125000 0.000000 0.000000 5.640100 22.357100 -3.085300 1.080053 10.631398 4.305172 -4.892352 -48.055799 -27.302409 -27.047640 36.610395 -7.697808 0.061829 -3.025771 -5.531413 -20.626891 -41.190365 12.943800 7.125000 0.000000 0.000000 -7.690100 20.738800 -175.491100 
-0.864815 14.060860 17.208439 84.127056 40.638040 81.894916 5.656928 3.300521 -2.270443 -19.417312 13.053432 -14.908396 22.588535 19.277909 97.332471 0.499613 0.826263 13.086523 0.001900 -0.282500 -0.776100 -6.923302 -2.616761 -0.480134 43.719124 17.408087 -28.109071 -4.524480 -13.562664 42.416450 -3.230758 15.693111 25.340801 -0.891100 6.017000 -16.833600 8.492782 -0.227354 -13.190644 -5.285486 -3.207349 -26.494150 -3.869417 -0.886855 0.781934 -2.651733 -9.251580 -3.505676 -14.132877 -8.677464 35.789195 -5.928700 -4.721400 13.160900 1.201539 -10.511015 5.028808 -0.261947 -0.548961 -16.339785 15.186912 -19.861945 -2.785351 0.908938 1.114851 -39.667135 35.618242 -6.155750 -4.482800 -7.125000 0.000000 0.000000 5.433900 22.001800 -3.015700 1.002256 10.764104 4.382146 -4.925794 -48.016792 -27.746345 -27.053613 36.579011 -7.606646 0.320166 -2.967207 -5.218871 -15.987128 -40.313594 9.898200 7.125000 0.000000 0.000000 -10.156100 22.630400 -174.448600 
-0.865528 14.012243 17.130468 85.244246 35.769630 83.243222 5.605167 3.309892 -2.237728 -25.631726 12.824392 -15.281960 22.363319 19.210160 96.677014 0.304055 2.218675 13.052550 0.004400 -0.429900 -1.181100 -7.087226 -2.565128 -0.497917 38.250161 18.706020 -29.639417 -4.790709 -13.987289 43.513029 -3.242122 16.229079 25.043126 -0.758300 5.561300 -15.516600 3.610184 -0.856889 -13.916062 -7.249845 -3.610605 -26.460864 -1.498925 -0.801220 1.196237 -2.534746 -9.235870 -3.682693 -14.381052 -8.648184 35.505661 -6.027500 -4.752400 13.105000 1.404449 -10.629042 5.075772 -0.580034 -0.624768 -16.648045 15.293723 -19.886805 -2.808167 0.946205 1.130844 -39.526314 35.646050 -6.637226 -4.805800 -7.125000 0.000000 0.000000 5.375900 21.423300 -3.054100 1.070398 10.591996 4.299073 -5.020988 -47.855531 -28.195890 -26.785501 36.470007 -7.730081 -0.021446 -3.165676 -5.235330 -22.748324 -45.563496 15.571600 7.125000 0.000000 0.000000 -7.141800 16.068700 -175.075100 
-0.875721 14.016218 17.031807 85.764366 33.771945 83.315152 5.529810 3.306262 -2.223188 -28.039798 13.157411 -14.765986 22.223731 19.140316 96.286762 0.234746 2.681200 13.008894 0.010100 -0.649200 -1.783900 -7.171441 -2.589562 -0.501768 36.085250 18.791586 -29.703868 -4.889635 -14.103561 43.858082 -3.231495 16.342188 24.725536 -0.694100 5.326000 -14.840800 2.289531 -0.867619 -13.408648 -8.886270 -3.740710 -26.411113 -1.080769 -0.700618 0.640856 -1.926976 -9.502764 -3.108512 -14.043221 -9.159229 35.497100 -5.944500 -4.836900 12.982800 1.532242 -10.639939 5.078904 -0.202766 -0.921083 -15.977701 15.327273 -19.968401 -2.830142 0.944485 1.120469 -40.022750 35.759859 -6.876080 -4.974700 -7.125000 0.000000 0.000000 5.438200 21.149300 -3.123700 1.087540 10.570898 4.241693 -4.653752 -48.279957 -27.532957 -26.945537 36.451877 -7.644708 0.176760 -2.976995 -5.460691 -18.740188 -41.329289 11.821400 7.125000 0.000000 0.000000 -8.716700 21.013300 -174.930700 
-0.873274 14.029366 16.947619 85.956050 34.463121 83.472556 5.527664 3.307397 -2.250611 -27.121855 13.430138 -14.602457 22.190325 19.146177 96.194963 0.293136 2.333745 13.158668 0.025300 -1.026600 -2.822000 -7.179946 -2.596592 -0.475451 36.751781 18.877915 -29.718279 -4.996803 -14.211093 44.287992 -3.230770 16.250226 24.852708 -0.747600 5.523000 -15.406500 3.008503 -0.779546 -13.431957 -8.685229 -3.713154 -26.581196 -1.473896 -0.722894 0.525279 -1.915830 -9.470915 -2.531418 -14.356188 -9.054321 35.282240 -6.005000 -4.811900 12.749000 1.500086 -10.634737 5.078828 -0.117494 -0.961093 -15.455303 15.325941 -19.992344 -2.833656 0.930307 1.114104 -40.332925 35.716668 -6.842035 -4.941800 -7.125000 0.000000 0.000000 5.421300 21.201100 -3.107500 1.067282 10.576458 4.217262 -4.788298 -48.521225 -26.919050 -27.051425 36.652421 -7.771431 0.053025 -3.044442 -6.010269 -21.556467 -42.875987 14.021300 7.125000 0.000000 0.000000 -7.391400 18.872100 -175.358100 
-0.875822 14.070237 16.858640 85.826350 37.180825 82.699991 5.539922 3.319715 -2.306694 -23.542039 14.083585 -13.560143 22.207977 19.132985 96.261985 0.405274 1.495442 13.066443 0.053700 -1.495300 -4.112800 -7.108982 -2.628703 -0.454649 39.821012 18.233745 -28.437458 -4.963992 -14.068523 44.113498 -3.210217 16.096353 24.864494 -0.833800 5.825200 -16.278200 5.738634 -0.527658 -12.489136 -7.404255 -3.560188 -26.601178 -2.679113 -0.840470 0.134795 -2.445490 -9.346134 -2.199334 -14.633675 -8.746666 35.193413 -5.991400 -4.765400 12.622900 1.364630 -10.583225 5.058223 -0.342124 -0.826719 -15.457309 15.320802 -19.997482 -2.827919 0.929204 1.094146 -40.046847 35.465588 -6.949647 -4.962400 -7.125000 0.000000 0.000000 5.241600 21.109200 -3.014500 1.035988 10.605653 4.239575 -4.973071 -48.483226 -26.987364 -27.198500 36.874779 -7.859510 0.082903 -3.081426 -6.010529 -21.200017 -43.855371 14.053700 7.125000 0.000000 0.000000 -7.691000 18.047400 -175.025000 
